<svg width="32" height="32" viewBox="0 0 32 32" fill="none" xmlns="http://www.w3.org/2000/svg">
  <defs>
    <linearGradient id="primaryGradient" x1="0%" y1="0%" x2="100%" y2="100%">
      <stop offset="0%" style="stop-color:#6344F5;stop-opacity:1" />
      <stop offset="50%" style="stop-color:#8B5CF6;stop-opacity:1" />
      <stop offset="100%" style="stop-color:#A855F7;stop-opacity:1" />
    </linearGradient>
    
    <filter id="glow" x="-50%" y="-50%" width="200%" height="200%">
      <feGaussianBlur stdDeviation="1" result="coloredBlur"/>
      <feMerge> 
        <feMergeNode in="coloredBlur"/>
        <feMergeNode in="SourceGraphic"/>
      </feMerge>
    </filter>
  </defs>
  
  <!-- Background -->
  <rect width="32" height="32" rx="6" fill="url(#primaryGradient)"/>
  
  <!-- Document icon -->
  <g transform="translate(8, 6)">
    <rect x="0" y="0" width="12" height="16" rx="1" fill="white" opacity="0.9"/>
    <path d="M10 0 L12 2 L10 2 Z" fill="#6344F5" opacity="0.3"/>
    
    <!-- Text lines -->
    <rect x="2" y="5" width="6" height="1" fill="#6344F5" opacity="0.6"/>
    <rect x="2" y="7" width="8" height="1" fill="#6344F5" opacity="0.4"/>
    <rect x="2" y="9" width="7" height="1" fill="#6344F5" opacity="0.4"/>
    <rect x="2" y="11" width="5" height="1" fill="#6344F5" opacity="0.3"/>
  </g>
  
  <!-- Sparkle -->
  <g transform="translate(22, 8)">
    <path d="M0 -2 L0.5 -0.5 L2 0 L0.5 0.5 L0 2 L-0.5 0.5 L-2 0 L-0.5 -0.5 Z" fill="#FFD700" opacity="0.9"/>
  </g>
  
  <!-- Small sparkle -->
  <g transform="translate(6, 24)">
    <path d="M0 -1.5 L0.4 -0.4 L1.5 0 L0.4 0.4 L0 1.5 L-0.4 0.4 L-1.5 0 L-0.4 -0.4 Z" fill="#00D4FF" opacity="0.8"/>
  </g>
</svg>
