<svg width="120" height="120" viewBox="0 0 120 120" fill="none" xmlns="http://www.w3.org/2000/svg">
  <defs>
    <!-- Gradient definitions -->
    <linearGradient id="primaryGradient" x1="0%" y1="0%" x2="100%" y2="100%">
      <stop offset="0%" style="stop-color:#6344F5;stop-opacity:1" />
      <stop offset="50%" style="stop-color:#8B5CF6;stop-opacity:1" />
      <stop offset="100%" style="stop-color:#A855F7;stop-opacity:1" />
    </linearGradient>
    
    <!-- Glow effect -->
    <filter id="glow" x="-50%" y="-50%" width="200%" height="200%">
      <feGaussianBlur stdDeviation="3" result="coloredBlur"/>
      <feMerge> 
        <feMergeNode in="coloredBlur"/>
        <feMergeNode in="SourceGraphic"/>
      </feMerge>
    </filter>
    
    <!-- Sparkle animation -->
    <filter id="sparkle" x="-50%" y="-50%" width="200%" height="200%">
      <feGaussianBlur stdDeviation="1" result="coloredBlur"/>
      <feMerge> 
        <feMergeNode in="coloredBlur"/>
        <feMergeNode in="SourceGraphic"/>
      </feMerge>
    </filter>
  </defs>
  
  <!-- Background circle with glow -->
  <circle cx="60" cy="60" r="50" fill="url(#primaryGradient)" filter="url(#glow)" opacity="0.1"/>
  
  <!-- Main document icon -->
  <g transform="translate(30, 25)">
    <!-- Document base -->
    <rect x="0" y="0" width="40" height="52" rx="4" ry="4" fill="url(#primaryGradient)" filter="url(#glow)"/>
    
    <!-- Document corner fold -->
    <path d="M32 0 L40 8 L32 8 Z" fill="#4C1D95" opacity="0.3"/>
    
    <!-- Document lines (representing text) -->
    <rect x="6" y="16" width="20" height="2" rx="1" fill="white" opacity="0.8"/>
    <rect x="6" y="22" width="28" height="2" rx="1" fill="white" opacity="0.6"/>
    <rect x="6" y="28" width="24" height="2" rx="1" fill="white" opacity="0.6"/>
    <rect x="6" y="34" width="26" height="2" rx="1" fill="white" opacity="0.4"/>
    <rect x="6" y="40" width="18" height="2" rx="1" fill="white" opacity="0.4"/>
  </g>
  
  <!-- AI Sparkles -->
  <g filter="url(#sparkle)">
    <!-- Top right sparkle -->
    <g transform="translate(85, 20)">
      <path d="M0 -8 L2 -2 L8 0 L2 2 L0 8 L-2 2 L-8 0 L-2 -2 Z" fill="#FFD700" opacity="0.9">
        <animateTransform attributeName="transform" type="rotate" values="0;360" dur="4s" repeatCount="indefinite"/>
      </path>
    </g>
    
    <!-- Left sparkle -->
    <g transform="translate(15, 45)">
      <path d="M0 -6 L1.5 -1.5 L6 0 L1.5 1.5 L0 6 L-1.5 1.5 L-6 0 L-1.5 -1.5 Z" fill="#00D4FF" opacity="0.8">
        <animateTransform attributeName="transform" type="rotate" values="360;0" dur="3s" repeatCount="indefinite"/>
      </path>
    </g>
    
    <!-- Bottom right sparkle -->
    <g transform="translate(90, 85)">
      <path d="M0 -4 L1 -1 L4 0 L1 1 L0 4 L-1 1 L-4 0 L-1 -1 Z" fill="#FF6B9D" opacity="0.7">
        <animateTransform attributeName="transform" type="rotate" values="0;360" dur="2.5s" repeatCount="indefinite"/>
      </path>
    </g>
  </g>
  
  <!-- GitHub icon integration -->
  <g transform="translate(70, 65)" opacity="0.6">
    <path d="M8 0C3.58 0 0 3.58 0 8C0 11.54 2.29 14.53 5.47 15.59C5.87 15.66 6.02 15.42 6.02 15.21C6.02 15.02 6.01 14.39 6.01 13.72C4 14.09 3.48 13.23 3.32 12.78C3.23 12.55 2.84 11.84 2.5 11.65C2.22 11.5 1.82 11.13 2.49 11.12C3.12 11.11 3.57 11.7 3.72 11.94C4.44 13.15 5.59 12.81 6.05 12.6C6.12 12.08 6.33 11.73 6.56 11.53C4.78 11.33 2.92 10.64 2.92 7.58C2.92 6.71 3.23 5.99 3.74 5.43C3.66 5.23 3.38 4.41 3.82 3.31C3.82 3.31 4.49 3.1 6.02 4.13C6.66 3.95 7.34 3.86 8.02 3.86C8.7 3.86 9.38 3.95 10.02 4.13C11.55 3.09 12.22 3.31 12.22 3.31C12.66 4.41 12.38 5.23 12.3 5.43C12.81 5.99 13.12 6.7 13.12 7.58C13.12 10.65 11.25 11.33 9.47 11.53C9.76 11.78 10.01 12.26 10.01 13.01C10.01 14.08 10 14.94 10 15.21C10 15.42 10.15 15.67 10.55 15.59C13.71 14.53 16 11.53 16 8C16 3.58 12.42 0 8 0Z" fill="url(#primaryGradient)" opacity="0.4"/>
  </g>
  
  <!-- Magic wand effect -->
  <g transform="translate(45, 75)" opacity="0.8">
    <line x1="0" y1="0" x2="15" y2="-15" stroke="url(#primaryGradient)" stroke-width="2" stroke-linecap="round">
      <animate attributeName="opacity" values="0.3;1;0.3" dur="2s" repeatCount="indefinite"/>
    </line>
    <circle cx="15" cy="-15" r="2" fill="#FFD700">
      <animate attributeName="r" values="1;3;1" dur="2s" repeatCount="indefinite"/>
    </circle>
  </g>
</svg>
